<?xml version="1.0" encoding="UTF-8"?>
<svg id="Layer_1" data-name="Layer 1" xmlns="http://www.w3.org/2000/svg" version="1.1" viewBox="0 0 1024 1024">
  <defs>
    <style>
      .cls-1 {
        fill: #fff;
        fill-rule: evenodd;
        stroke-width: 0px;
      }
    </style>
  </defs>
  <path class="cls-1" d="M367.9,424.7v68.2l67.3,67.3,41.3-40.5-47.5-50.2v-44.8c0-48.3,39.1-87.4,87.4-87.4s76.2,28.9,85.1,67.8h62.1c-9.6-72.8-71.9-129-147.2-129s-148.5,66.6-148.5,148.7ZM669.3,466.2h-50.9l-62.4,61.2h113.3c43.4,0,78.6,35.2,78.6,78.7s-35.2,78.7-78.6,78.7h-96.5l-60.7,61.2h157.3c77.2,0,139.8-62.6,139.8-139.9s-62.6-139.9-139.8-139.9ZM577.3,588.6h-82.8l-97.8,96.2h-41.9c-43.4,0-78.6-35.2-78.6-78.7s12-47.9,30.6-62.3v-69.1c-53.5,19.6-91.7,71.1-91.7,131.4s62.6,139.9,139.8,139.9h67.5l155.1-157.4Z"/>
</svg>